HIERARCHY
ROOT Hips
{
	OFFSET -0.001795 -0.223333 0.028219
	CHANNELS 6 Xposition Yposition Zposition Zrotation Yrotation Xrotation 
	JOINT LeftUpLeg
	{
		OFFSET 0.069520 -0.091406 -0.006815
		CHANNELS 3 Zrotation Yrotation Xrotation
		JOINT LeftLeg
		{
			OFFSET 0.034277 -0.375199 -0.004496
			CHANNELS 3 Zrotation Yrotation Xrotation
			JOINT LeftFoot
			{
				OFFSET -0.013596 -0.397961 -0.043693
				CHANNELS 3 Zrotation Yrotation Xrotation
				JOINT LeftToe
				{
					OFFSET 0.026358 -0.055791 0.119288
					CHANNELS 3 Zrotation Yrotation Xrotation
					End Site
					{
						OFFSET 0.000000 0.000000 0.000000
					}
				}
			}
		}
	}
	JOINT RightUpLeg
	{
		OFFSET -0.067670 -0.090522 -0.004320
		CHANNELS 3 Zrotation Yrotation Xrotation
		JOINT RightLeg
		{
			OFFSET -0.038290 -0.382569 -0.008850
			CHANNELS 3 Zrotation Yrotation Xrotation
			JOINT RightFoot
			{
				OFFSET 0.015774 -0.398415 -0.042312
				CHANNELS 3 Zrotation Yrotation Xrotation
				JOINT RightToe
				{
					OFFSET -0.025372 -0.048144 0.123348
					CHANNELS 3 Zrotation Yrotation Xrotation
					End Site
					{
						OFFSET 0.000000 0.000000 0.000000
					}
				}
			}
		}
	}
	JOINT Spine
	{
		OFFSET -0.002533 0.108963 -0.026696
		CHANNELS 3 Zrotation Yrotation Xrotation
		JOINT Spine1
		{
			OFFSET 0.005487 0.135180 0.001092
			CHANNELS 3 Zrotation Yrotation Xrotation
			JOINT Spine2
			{
				OFFSET 0.001457 0.052922 0.025425
				CHANNELS 3 Zrotation Yrotation Xrotation
				JOINT Neck
				{
					OFFSET -0.002778 0.213870 -0.042857
					CHANNELS 3 Zrotation Yrotation Xrotation
					JOINT Head
					{
						OFFSET 0.005152 0.064970 0.051349
						CHANNELS 3 Zrotation Yrotation Xrotation
						End Site
						{
							OFFSET 0.000000 0.000000 0.000000
						}
					}
				}
				JOINT LeftShoulder
				{
					OFFSET 0.078845 0.121749 -0.034090
					CHANNELS 3 Zrotation Yrotation Xrotation
					JOINT LeftArm
					{
						OFFSET 0.090977 0.030469 -0.008868
						CHANNELS 3 Zrotation Yrotation Xrotation
						JOINT LeftForeArm
						{
							OFFSET 0.259612 -0.012772 -0.027456
							CHANNELS 3 Zrotation Yrotation Xrotation
							JOINT LeftHand
							{
								OFFSET 0.249234 0.008986 -0.001171
								CHANNELS 3 Zrotation Yrotation Xrotation
								End Site
								{
									OFFSET 0.000000 0.000000 0.000000
								}
							}
						}
					}
				}
				JOINT RightShoulder
				{
					OFFSET -0.081759 0.118833 -0.038615
					CHANNELS 3 Zrotation Yrotation Xrotation
					JOINT RightArm
					{
						OFFSET -0.096012 0.032551 -0.009143
						CHANNELS 3 Zrotation Yrotation Xrotation
						JOINT RightForeArm
						{
							OFFSET -0.253742 -0.013329 -0.021401
							CHANNELS 3 Zrotation Yrotation Xrotation
							JOINT RightHand
							{
								OFFSET -0.255298 0.007772 -0.005559
								CHANNELS 3 Zrotation Yrotation Xrotation
								End Site
								{
									OFFSET 0.000000 0.000000 0.000000
								}
							}
						}
					}
				}
			}
		}
	}
}
MOTION
Frames: 13
Frame Time: 0.050000
0.000000 0.805288 0.000000 1.156900 -19.962846 8.674923 -2.419201 -0.078744 -59.987600 4.553491 -1.301697 49.702495 1.854421 4.650043 3.958745 0.000000 0.000000 0.000000 -4.116721 5.990084 -41.056551 10.950204 0.894709 52.205520 -12.489525 -35.765198 -17.500467 0.000000 0.000000 0.000000 8.254934 -0.855253 57.693770 -5.595942 1.429691 -31.655286 -3.104812 9.839547 29.902775 15.217470 -5.892328 -30.794486 0.000000 0.000000 0.000000 -26.359381 -8.534815 3.096125 -52.809665 5.836023 -11.177581 -39.576699 -64.086104 29.771051 0.000000 0.000000 0.000000 22.639139 0.498884 -0.060903 63.576006 0.677940 -8.910185 12.919768 68.012995 14.965417 0.000000 0.000000 0.000000 
-0.000710 0.802717 0.006796 -0.112642 -20.016840 10.338087 -3.575634 -0.553796 -61.365603 8.061328 -3.554251 50.245788 1.566123 3.830511 2.785339 0.000000 0.000000 0.000000 -3.814913 6.929185 -44.449491 12.427881 0.104801 55.477562 -13.329952 -37.113838 -11.923496 0.000000 0.000000 0.000000 8.718686 -1.015289 60.224175 -5.534830 1.342095 -33.011577 -1.054900 12.114662 29.108335 15.101944 -4.269220 -35.489094 0.000000 0.000000 0.000000 -27.607287 -9.100927 2.146530 -49.080648 7.938262 -10.568630 -52.494613 -63.304132 37.065645 0.000000 0.000000 0.000000 22.174904 -3.041320 -1.384640 64.966838 -0.452515 -9.391383 15.213282 71.939193 18.833806 0.000000 0.000000 0.000000 
-0.000096 0.799520 0.014427 1.029611 -19.563182 10.999022 -5.183901 -1.588090 -62.873116 8.480962 -4.073745 51.547454 1.623432 3.936281 2.649363 0.000000 0.000000 0.000000 -5.152873 6.481080 -44.848834 12.162231 0.095625 55.578218 -13.079940 -37.660034 -14.237676 0.000000 0.000000 0.000000 9.410494 -1.558913 60.581251 -7.232860 1.567430 -33.197154 -2.109479 10.407610 28.290780 15.159986 -5.220366 -32.258534 0.000000 0.000000 0.000000 -27.915757 -8.236148 2.171985 -49.270533 9.626188 -11.396616 -52.781435 -62.935529 37.389373 0.000000 0.000000 0.000000 27.004151 -2.042877 -1.467779 60.667018 -1.753120 -9.703982 23.698965 72.723890 24.512154 0.000000 0.000000 0.000000 
0.002239 0.800292 0.023574 1.388207 -19.872945 11.996107 -6.757750 -2.388279 -64.011938 9.997883 -5.155101 52.235594 1.614334 4.024892 3.004030 0.000000 0.000000 0.000000 -6.808768 6.538638 -47.453631 13.463268 -0.770185 57.817483 -13.772107 -37.825997 -8.861847 0.000000 0.000000 0.000000 9.234406 -1.257858 62.829139 -5.762949 1.336096 -35.935819 -2.277767 11.677228 29.765710 14.296576 -3.962383 -34.970279 0.000000 0.000000 0.000000 -28.680898 -8.985470 2.018143 -49.258820 11.174541 -11.852368 -57.964370 -62.682108 40.528842 0.000000 0.000000 0.000000 25.686271 -2.385314 -1.026273 61.809108 -0.921967 -9.552921 22.990768 74.750398 25.700908 0.000000 0.000000 0.000000 
0.005825 0.800744 0.034179 1.885773 -20.259473 13.968300 -7.384866 -2.542284 -66.189403 9.301876 -4.958111 53.038191 1.823800 4.477983 3.180409 0.000000 0.000000 0.000000 -8.721103 6.204786 -48.665757 14.110830 -1.306925 56.737270 -13.341428 -37.628342 -9.980844 0.000000 0.000000 0.000000 9.241962 -1.218749 61.995517 -6.406973 1.405191 -34.775972 -2.108280 11.182362 28.147566 13.371517 -3.515284 -34.928018 0.000000 0.000000 0.000000 -28.175076 -9.014990 2.285324 -51.105152 12.321653 -12.663798 -60.220722 -61.816653 41.603688 0.000000 0.000000 0.000000 26.975906 -1.895194 -1.076806 59.472815 -0.523456 -8.861300 19.553139 75.655581 22.697929 0.000000 0.000000 0.000000 
0.009931 0.801266 0.046110 2.005760 -20.350972 15.212488 -7.981538 -2.841593 -67.511408 9.070304 -5.017683 54.051459 1.947148 4.718704 3.129027 0.000000 0.000000 0.000000 -10.036578 6.014463 -49.956927 14.796462 -1.857125 57.994451 -12.963731 -36.278711 -8.719112 0.000000 0.000000 0.000000 9.406953 -1.245913 62.916930 -5.647681 1.313318 -35.609709 -2.638467 11.944041 28.142702 12.757859 -2.918481 -35.617783 0.000000 0.000000 0.000000 -28.103695 -10.046951 2.588170 -51.183490 12.727232 -12.699429 -62.008086 -61.839684 42.599218 0.000000 0.000000 0.000000 26.818522 -1.155334 -0.238860 59.154214 -0.004579 -8.584616 12.860827 76.348901 17.919571 0.000000 0.000000 0.000000 
0.013118 0.804234 0.058653 1.859662 -20.195289 16.705641 -8.224905 -3.019118 -68.423943 8.931029 -5.062071 53.869322 1.677066 4.373888 3.715224 0.000000 0.000000 0.000000 -10.769669 5.849669 -50.581779 14.900429 -2.066283 58.464837 -12.237391 -34.252782 -8.507310 0.000000 0.000000 0.000000 9.268926 -1.225523 63.434930 -5.787920 1.308589 -35.713225 -2.619252 12.320243 27.630012 13.559608 -3.263545 -35.144430 0.000000 0.000000 0.000000 -27.785006 -10.503177 2.643885 -51.130072 12.641117 -12.503739 -64.303114 -62.555545 44.595736 0.000000 0.000000 0.000000 28.067369 -0.949291 0.078870 57.427859 0.907644 -7.971686 5.959160 76.001986 12.401238 0.000000 0.000000 0.000000 
0.014883 0.808396 0.070931 1.960185 -19.446777 17.706889 -8.168456 -3.312267 -68.489941 8.721422 -5.024638 53.255296 0.494128 2.264966 3.983979 0.000000 0.000000 0.000000 -10.956461 5.574754 -50.405404 14.087667 -1.768625 59.017271 -11.479254 -31.987466 -8.624906 0.000000 0.000000 0.000000 8.739739 -1.188981 63.976987 -5.599140 1.266589 -36.289249 -2.709421 12.396340 27.473759 13.478751 -3.173665 -34.991689 0.000000 0.000000 0.000000 -27.999505 -11.268124 2.965740 -50.096492 12.112282 -11.921906 -65.531696 -63.637811 46.200327 0.000000 0.000000 0.000000 28.846108 -0.497093 0.569606 56.412724 1.236871 -7.767236 3.350209 76.076608 10.416826 0.000000 0.000000 0.000000 
0.014914 0.813982 0.082090 1.967043 -18.919758 18.913793 -7.694741 -3.227330 -68.537218 8.592545 -4.964116 52.332727 -1.392836 -1.127257 4.336738 0.000000 0.000000 0.000000 -10.344460 5.582451 -49.891750 12.609762 -0.919002 58.527797 -11.107811 -30.897388 -9.124603 0.000000 0.000000 0.000000 7.928616 -0.904772 63.847662 -5.234341 1.223214 -36.320907 -2.487878 12.771934 27.191399 13.746985 -3.143225 -35.227698 0.000000 0.000000 0.000000 -28.264691 -12.142218 3.300011 -49.269931 11.332317 -11.259567 -67.970438 -65.593883 49.506190 0.000000 0.000000 0.000000 28.960699 -0.265535 0.962462 55.844647 1.388437 -7.632235 0.906570 74.952557 8.413155 0.000000 0.000000 0.000000 
0.014167 0.819394 0.091881 1.797366 -18.381396 20.092736 -7.727804 -3.451769 -68.842605 9.447913 -5.545367 51.421064 -3.229530 -3.885962 5.843842 0.000000 0.000000 0.000000 -9.513547 5.688564 -49.468134 11.073750 -0.037932 57.925525 -11.040963 -30.784233 -10.072668 0.000000 0.000000 0.000000 7.308470 -0.708054 63.960365 -4.813502 1.184268 -36.676804 -2.810064 13.065469 27.290701 14.522301 -3.118345 -36.809436 0.000000 0.000000 0.000000 -27.455964 -13.082735 3.780361 -49.214345 10.040584 -10.717405 -70.904654 -68.178490 53.985024 0.000000 0.000000 0.000000 28.600267 -0.267708 1.164812 56.069377 1.945688 -7.405803 0.506799 74.585958 8.238486 0.000000 0.000000 0.000000 
0.013263 0.822307 0.100925 1.619508 -17.648835 20.812065 -7.713442 -3.749268 -69.163282 10.402719 -6.256776 51.275170 -5.351967 -7.093484 7.151518 0.000000 0.000000 0.000000 -8.864340 5.725596 -49.271434 10.606041 0.070096 57.494782 -11.645123 -32.597722 -10.121829 0.000000 0.000000 0.000000 6.661351 -0.577140 63.868226 -4.978400 1.217210 -36.930685 -2.495648 12.901919 27.898459 14.232070 -2.792954 -37.842725 0.000000 0.000000 0.000000 -26.588778 -13.793171 4.298004 -49.866621 7.721937 -10.059580 -73.168336 -70.621337 58.216159 0.000000 0.000000 0.000000 27.582684 -0.867196 0.794358 57.380019 2.719497 -7.162758 6.086267 74.836186 12.825103 0.000000 0.000000 0.000000 
0.012935 0.822243 0.110221 1.441377 -16.787920 21.162502 -7.882676 -4.223357 -69.378394 10.816760 -6.707128 51.740580 -5.967257 -7.963801 7.586841 0.000000 0.000000 0.000000 -8.522505 5.627490 -49.032064 10.612600 -0.137289 57.605817 -12.008990 -34.045297 -11.373993 0.000000 0.000000 0.000000 6.261044 -0.647654 63.757931 -4.778152 1.211549 -36.536110 -2.457140 12.706461 27.920281 14.427020 -2.697157 -38.801166 0.000000 0.000000 0.000000 -25.663239 -14.314812 4.659212 -50.555233 6.333789 -9.713839 -75.850707 -72.995655 62.851449 0.000000 0.000000 0.000000 26.795927 -0.704710 0.913938 58.119186 3.577371 -6.770034 7.770770 76.139316 14.626173 0.000000 0.000000 0.000000 
0.013236 0.819851 0.120415 1.061499 -16.301241 20.965148 -7.852473 -4.400135 -69.236006 11.327290 -7.223421 53.096407 -6.564544 -9.504643 6.735889 0.000000 0.000000 0.000000 -8.124182 5.634372 -48.810649 10.539897 -0.134676 58.624477 -12.102741 -34.815807 -12.928318 0.000000 0.000000 0.000000 6.216819 -0.795091 64.057980 -5.650788 1.287876 -37.330481 -2.265300 12.229614 28.546840 14.548276 -2.860877 -38.653545 0.000000 0.000000 0.000000 -25.579336 -14.709407 5.074144 -50.372287 5.419179 -9.432579 -76.941846 -74.084477 65.087140 0.000000 0.000000 0.000000 27.511719 -0.729763 0.834743 57.137901 4.303047 -6.511973 20.553495 78.239115 25.695372 0.000000 0.000000 0.000000 
